<svg xmlns="http://www.w3.org/2000/svg">
    <symbol id="icon-sun" viewBox="0 0 512 512">
        <path d="M 256 0 Q 271 1 272 16 L 272 96 L 272 96 Q 271 111 256 112 Q 241 111 240 96 L 240 16 L 240 16 Q 241 1 256 0 L 256 0 Z M 0 256 Q 1 241 16 240 L 96 240 L 96 240 Q 111 241 112 256 Q 111 271 96 272 L 16 272 L 16 272 Q 1 271 0 256 L 0 256 Z M 400 256 Q 401 241 416 240 L 496 240 L 496 240 Q 511 241 512 256 Q 511 271 496 272 L 416 272 L 416 272 Q 401 271 400 256 L 400 256 Z M 256 400 Q 271 401 272 416 L 272 496 L 272 496 Q 271 511 256 512 Q 241 511 240 496 L 240 416 L 240 416 Q 241 401 256 400 L 256 400 Z M 75 75 Q 86 66 98 75 L 154 132 L 154 132 Q 163 143 154 154 Q 143 164 132 154 L 75 98 L 75 98 Q 66 86 75 75 L 75 75 Z M 75 437 Q 66 426 75 414 L 132 358 L 132 358 Q 143 349 154 358 Q 164 369 154 380 L 98 437 L 98 437 Q 86 446 75 437 L 75 437 Z M 358 154 Q 349 143 358 132 L 414 75 L 414 75 Q 426 66 437 75 Q 446 86 437 98 L 380 154 L 380 154 Q 369 163 358 154 L 358 154 Z M 358 358 Q 369 349 380 358 L 437 414 L 437 414 Q 446 426 437 437 Q 426 446 414 437 L 358 380 L 358 380 Q 349 369 358 358 L 358 358 Z M 336 256 Q 335 211 296 187 Q 256 165 216 187 Q 177 211 176 256 Q 177 301 216 325 Q 256 347 296 325 Q 335 301 336 256 L 336 256 Z M 144 256 Q 144 226 159 200 L 159 200 L 159 200 Q 174 174 200 159 Q 226 144 256 144 Q 286 144 312 159 Q 338 174 353 200 Q 368 226 368 256 Q 368 286 353 312 Q 338 338 312 353 Q 286 368 256 368 Q 226 368 200 353 Q 174 338 159 312 Q 144 286 144 256 L 144 256 Z" />
    </symbol>
    <symbol id="icon-moon" viewBox="0 0 512 512">
        <path d="M 296 130 Q 298 136 304 136 Q 310 136 312 130 L 323 91 L 323 91 L 362 80 L 362 80 Q 368 78 368 72 Q 368 66 362 64 L 323 53 L 323 53 L 312 14 L 312 14 Q 310 8 304 8 Q 298 8 296 14 L 285 53 L 285 53 L 246 64 L 246 64 Q 240 66 240 72 Q 240 78 246 80 L 285 91 L 285 91 L 296 130 L 296 130 Z M 404 303 Q 407 312 416 312 Q 425 311 428 303 L 445 245 L 445 245 L 503 228 L 503 228 Q 512 225 512 216 Q 511 207 503 204 L 445 187 L 445 187 L 428 129 L 428 129 Q 425 120 416 120 Q 407 121 404 129 L 387 187 L 387 187 L 329 204 L 329 204 Q 320 207 320 216 Q 321 225 329 228 L 387 245 L 387 245 L 404 303 L 404 303 Z M 48 312 Q 49 258 81 220 L 81 220 L 81 220 Q 113 182 164 171 Q 129 213 128 272 Q 129 336 170 380 Q 210 424 273 431 Q 238 455 192 456 Q 131 454 90 414 Q 50 373 48 312 L 48 312 Z M 192 120 Q 110 122 56 176 L 56 176 L 56 176 Q 2 230 0 312 Q 2 394 56 448 Q 110 502 192 504 Q 245 503 287 479 Q 330 454 356 412 Q 364 398 354 384 Q 343 372 327 377 Q 309 384 288 384 Q 240 383 209 351 Q 177 320 176 272 Q 176 238 194 211 Q 212 184 241 170 Q 256 163 255 146 Q 252 130 236 125 Q 215 120 192 120 L 192 120 Z" />
    </symbol>
</svg>