<?xml version="1.0" encoding="UTF-8" standalone="no"?>
<!-- Created with Inkscape (http://www.inkscape.org/) -->

<svg
   viewBox="0 0 147.83112 166.66006"
   version="1.1"
   id="svg1"
   xml:space="preserve"
   xmlns="http://www.w3.org/2000/svg"
   xmlns:svg="http://www.w3.org/2000/svg"><defs
     id="defs1" /><g
     id="layer1"
     transform="translate(-27.756356,-60.393755)"><path
       id="path1"
       style="fill:currentColor;stroke:none"
       d="m 134.96577,226.55447 c -1.34855,-0.71276 -2.56432,-2.19768 -2.75932,-3.37017 -0.0913,-0.54882 -0.2037,-1.12379 -0.24982,-1.27773 -0.0461,-0.15393 -2.17684,-1.17688 -4.73492,-2.27322 l -4.65106,-1.99335 -0.69939,1.00921 c -4.57875,6.60714 -13.91785,7.26335 -19.43491,1.3656 -3.207697,-3.42904 -4.401293,-7.8268 -3.286205,-12.10791 0.329807,-1.26622 0.34221,-1.61603 0.06615,-1.86554 -0.186878,-0.1689 -1.992086,-1.35159 -4.011575,-2.62821 l -3.671797,-2.32113 -1.180003,0.58932 c -1.671197,0.83464 -3.883085,0.66542 -5.410981,-0.41395 -1.522457,-1.07553 -2.206215,-2.48371 -2.200167,-4.53117 0.0041,-1.39076 0.12547,-1.80938 0.804754,-2.77588 1.083876,-1.54217 2.523671,-2.3234 4.292136,-2.32891 1.816946,-0.006 2.875657,0.45949 4.077592,1.7915 0.956354,1.05985 1.197838,1.75934 1.336142,3.8703 0.06756,1.03121 0.08591,1.04719 4.018047,3.50063 l 3.950167,2.46469 1.47379,-1.40249 c 1.76452,-1.67917 3.481,-2.72134 5.52129,-3.35229 l 1.50874,-0.46657 0.0793,-7.13635 0.0793,-7.13635 -1.45617,-0.71244 c -1.56094,-0.76369 -2.48601,-1.69624 -3.4052,-3.4327 -0.81912,-1.54744 -0.81395,-4.6091 0.0104,-6.16749 1.28585,-2.43078 3.39996,-3.81887 6.093,-4.00056 4.14882,-0.2799 7.55318,2.97984 7.54741,7.22681 -0.001,0.87313 -0.19018,2.0268 -0.41999,2.56371 -0.59392,1.38759 -2.39717,3.24762 -3.77755,3.89648 l -1.17856,0.55398 v 7.24524 7.24524 l 0.99219,0.18575 c 1.34042,0.25093 3.44917,1.27353 4.88152,2.36722 l 1.17894,0.90019 4.34503,-3.43493 4.34503,-3.43492 -0.0878,-1.39392 c -0.20364,-3.23373 2.09029,-5.69319 5.32384,-5.70802 2.31181,-0.0106 4.37281,1.55336 4.97009,3.77147 1.0857,4.032 -2.47533,7.65727 -6.44114,6.55732 -0.61555,-0.17073 -1.26123,-0.33344 -1.43485,-0.36157 -0.17363,-0.0281 -2.26384,1.47894 -4.64493,3.34906 l -4.32924,3.4002 0.57743,1.23 c 0.91557,1.95029 1.23759,3.81435 1.13453,6.56732 l -0.095,2.53839 4.43911,1.94546 4.43911,1.94547 1.09177,-0.79087 c 2.13224,-1.54459 4.22618,-1.63339 6.37542,-0.27038 3.45089,2.18849 2.90813,7.52267 -0.92855,9.12573 -1.32079,0.55187 -3.29517,0.49999 -4.46302,-0.11727 z m -21.53717,-6.75624 c 0.58208,-0.0934 1.63643,-0.48316 2.34299,-0.86622 5.07441,-2.75106 5.97663,-9.89951 1.77921,-14.09693 -4.38031,-4.38031 -11.32844,-3.08241 -13.99905,2.61501 -0.59308,1.26526 -0.70605,1.8682 -0.70377,3.75616 0.002,1.9564 0.10327,2.44825 0.77578,3.78102 0.86507,1.71441 2.44033,3.30146 4.13509,4.16606 1.16936,0.59657 3.15915,1.0323 4.08225,0.89396 0.29104,-0.0436 1.00541,-0.15569 1.5875,-0.24906 z m 0.0943,-40.74752 c 1.0742,-0.90388 1.49643,-2.2185 1.09915,-3.42226 -1.14917,-3.48202 -6.35286,-2.73059 -6.35286,0.91738 0,1.01482 0.60005,2.21557 1.38028,2.76207 0.95412,0.66829 2.92943,0.53714 3.87343,-0.25719 z m -34.093291,45.48374 c -0.363802,-0.0514 -1.672355,-0.23039 -2.907895,-0.39772 -4.067224,-0.55081 -7.60492,-1.82064 -10.577216,-3.79662 -7.418576,-4.93186 -8.904637,-13.91199 -3.985304,-24.08282 2.981217,-6.16373 6.24311,-10.31436 19.961356,-25.4 12.802572,-14.0787 16.253357,-18.16729 19.53953,-23.15104 1.00751,-1.52797 1.87095,-2.81852 1.91875,-2.86789 0.0478,-0.0494 1.34646,0.88257 2.88591,2.07098 l 2.79901,2.16075 -1.76486,2.03006 c -0.97067,1.11653 -7.324406,7.86412 -14.119414,14.99464 -13.982928,14.67336 -16.524005,17.47891 -19.890225,21.96042 -5.102307,6.79278 -7.876638,12.67586 -8.716296,18.48322 -1.327483,9.18133 5.141954,15.42291 17.496869,16.8806 1.457025,0.17191 4.582914,0.24411 7.413951,0.17124 4.457886,-0.11474 4.740644,-0.0963 3.167833,0.20618 -3.92988,0.75588 -10.50061,1.12262 -13.221999,0.738 z M 30.3933,189.75652 c -2.690969,-0.66123 -3.340908,-1.02091 -1.864462,-1.03181 4.431436,-0.0327 12.611656,-2.65801 20.293693,-6.5129 13.874613,-6.96236 28.546992,-18.03186 43.770128,-33.02214 3.237839,-3.18831 5.886979,-5.71223 5.886979,-5.60871 0,0.10352 -0.576454,0.80617 -1.281008,1.56144 -0.704555,0.75527 -2.928552,3.33776 -4.942216,5.73885 -8.709633,10.38537 -17.238577,19.02441 -24.997608,25.32028 -9.532937,7.73526 -18.327177,12.39576 -25.873805,13.71178 -3.187201,0.5558 -8.393965,0.48153 -10.991701,-0.15679 z m 110.72956,-3.65599 -1.14532,-1.00607 2.07136,-1.7142 c 8.10259,-6.70551 14.29614,-14.72057 17.81663,-23.05645 5.0538,-11.96649 6.22298,-23.67403 3.66454,-36.69464 -0.73948,-3.76342 -2.65918,-9.52932 -4.18678,-12.5752 -0.69128,-1.37833 -1.22232,-2.50605 -1.1801,-2.50605 0.21004,0 2.92544,4.78243 3.9392,6.93781 4.3723,9.29609 5.821,21.50623 3.98674,33.60164 -1.45514,9.59541 -6.06443,19.57513 -12.79132,27.69484 -2.03618,2.45778 -6.41823,6.76065 -8.86415,8.704 -1.13732,0.90362 -2.08982,1.63788 -2.11667,1.63167 -0.0268,-0.006 -0.56421,-0.46401 -1.19413,-1.01735 z M 51.894674,171.53735 c -3.592853,-3.07986 -7.333606,-10.21145 -9.245318,-17.62581 -1.269217,-4.92251 -1.611809,-7.53406 -1.771725,-13.50569 -0.208263,-7.77697 0.326973,-12.5649 2.143864,-19.17787 4.642254,-16.89649 15.903499,-30.732086 31.381061,-38.554866 9.225452,-4.662794 18.524551,-6.665405 29.368744,-6.324719 7.94374,0.249564 13.69652,1.446883 21.16667,4.405394 1.63087,0.645895 10.04009,4.953787 10.45104,5.353879 0.14552,0.141675 -0.44979,-0.06248 -1.32292,-0.453673 -6.95463,-3.11596 -13.2678,-5.027037 -20.24062,-6.127089 -4.74914,-0.749239 -15.335746,-0.668187 -19.97604,0.152937 -16.311805,2.88646 -29.897962,11.680923 -39.078923,25.296197 -10.996311,16.30743 -13.507585,37.77377 -6.639254,56.75228 1.264736,3.49471 3.334067,7.84793 4.622498,9.72428 0.960437,1.39869 0.70331,1.42406 -0.859077,0.0848 z m 80.848506,-14.19258 c -7.97389,-6.01717 -11.92553,-9.03298 -12.67124,-9.67045 -0.12971,-0.11088 1.90131,-2.56007 4.51338,-5.44265 2.61206,-2.88257 7.65928,-8.81862 11.21603,-13.19121 9.67442,-11.8935 11.73784,-14.3752 11.96624,-14.39192 0.11426,-0.008 0.0992,0.19315 -0.0336,0.44782 -0.13272,0.25466 -1.04444,3.02286 -2.02605,6.15156 l -1.78476,5.68854 0.15976,3.83646 c 0.0879,2.11005 0.51837,8.47989 0.95669,14.15521 1.04398,13.51759 1.0431,13.66968 -0.0885,15.34936 -0.48889,0.72566 -1.41162,1.89004 -2.05052,2.5875 l -1.16164,1.26811 z m -20.04765,-11.39873 c -1.55133,-1.16607 -2.24379,-1.84316 -2.08896,-2.04256 0.12739,-0.16405 1.65545,-2.09043 3.39571,-4.28085 1.74025,-2.19041 4.00721,-5.16698 5.03769,-6.61458 1.88178,-2.64349 5.10425,-7.64696 5.10425,-7.92526 0,-0.27168 -6.21317,5.33932 -7.74775,6.99685 -1.94979,2.10601 -4.2456,5.1297 -6.15083,8.10093 -0.83453,1.30147 -1.55584,2.41067 -1.60292,2.46488 -0.0471,0.0542 -1.15603,-0.66015 -2.46435,-1.5875 -2.71704,-1.92584 -2.67021,-1.71239 -1.0083,-4.59649 2.5395,-4.40706 5.82909,-9.00453 11.08752,-15.49575 4.58559,-5.66062 15.88086,-19.94119 22.79685,-28.821957 7.74329,-9.943115 10.42701,-13.170766 14.04945,-16.896983 4.72084,-4.856103 9.96804,-8.820291 15.75491,-11.902637 2.3189,-1.235149 6.16417,-2.950378 6.61428,-2.950378 0.21413,0 0.17804,0.280425 -0.54938,4.269623 -1.45009,7.952303 -4.94587,16.560143 -9.70726,23.902703 -3.10084,4.781815 -6.98978,9.770627 -16.61611,21.315459 -3.22038,3.86218 -9.38115,11.44123 -13.69061,16.84232 -7.62758,9.55973 -7.99049,9.96643 -13.68417,15.33513 -3.21684,3.03323 -5.92994,5.54115 -6.02913,5.57315 -0.0992,0.032 -1.22458,-0.72675 -2.50089,-1.6861 z m 52.6249,-64.187182 c 1.39348,-2.766509 1.95087,-4.568252 1.95087,-6.306071 0,-1.349793 -0.0844,-1.593614 -0.7276,-2.102319 -1.4632,-1.157199 -4.587,-0.09208 -8.22074,2.803009 l -1.89654,1.511021 2.07776,1.421497 c 1.14277,0.781823 2.89826,2.125766 3.90109,2.986541 1.00283,0.860774 1.85159,1.573933 1.88614,1.584797 0.0345,0.01087 0.49761,-0.843449 1.02902,-1.898475 z M 91.663252,125.94915 c -6.279516,-4.69573 -11.422378,-8.61507 -11.428583,-8.70965 -0.0062,-0.0946 1.149579,-1.37601 2.568407,-2.84763 2.00798,-2.08269 2.735778,-2.67492 3.284006,-2.67231 1.037084,0.005 19.310768,-2.86568 29.779398,-4.67807 0.46772,-0.081 3.89077,-1.78432 7.60677,-3.78521 3.71601,-2.00089 6.75639,-3.59052 6.75639,-3.532512 0,0.05801 -3.49264,4.597252 -7.76141,10.087202 -4.26878,5.48996 -10.25917,13.24854 -13.31199,17.24129 -3.05282,3.99275 -5.66873,7.29893 -5.81313,7.34707 -0.14441,0.0481 -5.400341,-3.75444 -11.679858,-8.45018 z" /></g></svg>
