<?xml version="1.0" encoding="UTF-8" standalone="no"?>
<!-- Created with Inkscape (http://www.inkscape.org/) -->

<svg
   width="97.436256mm"
   height="152.13396mm"
   viewBox="0 0 97.436256 152.13396"
   version="1.1"
   id="svg1"
   xml:space="preserve"
   sodipodi:docname="yt-adce-logo-dark.svg"
   inkscape:version="1.3.2 (091e20e, 2023-11-25, custom)"
   xmlns:inkscape="http://www.inkscape.org/namespaces/inkscape"
   xmlns:sodipodi="http://sodipodi.sourceforge.net/DTD/sodipodi-0.dtd"
   xmlns="http://www.w3.org/2000/svg"
   xmlns:svg="http://www.w3.org/2000/svg"><sodipodi:namedview
     id="namedview1"
     pagecolor="#505050"
     bordercolor="#eeeeee"
     borderopacity="1"
     inkscape:showpageshadow="0"
     inkscape:pageopacity="0"
     inkscape:pagecheckerboard="0"
     inkscape:deskcolor="#505050"
     inkscape:document-units="mm"
     inkscape:zoom="2.0539328"
     inkscape:cx="184.03718"
     inkscape:cy="287.49723"
     inkscape:window-width="3440"
     inkscape:window-height="1377"
     inkscape:window-x="1912"
     inkscape:window-y="-8"
     inkscape:window-maximized="1"
     inkscape:current-layer="svg1" /><defs
     id="defs1" /><g
     id="layer1"
     transform="translate(-56.281871,-72.43302)"
     style="fill:#6b85c9;fill-opacity:1"><path
       id="path1"
       style="fill:#6b85c9;fill-opacity:1"
       d="m 148.78216,72.686862 c -1.28244,0.809707 -4.79035,4.807851 -7.65785,8.728836 -4.81678,6.586384 -9.81916,14.757468 -20.17181,32.949722 -9.41333,16.54159 -12.39934,21.71018 -13.30685,23.03151 -3.25553,4.74003 -12.128107,11.33293 -36.830889,27.36859 -4.175035,2.7102 -8.148506,5.31849 -8.829799,5.79626 -1.3116,0.91978 -2.319732,2.10857 -3.275518,3.80337 l -2.427573,6.6697 c 0.02893,0.0846 0.04221,0.16126 0.08315,0.25959 0.326582,0.78431 0.605223,0.96847 3.485857,2.30756 1.721849,0.80042 4.264606,1.99497 5.650611,2.65444 1.385994,0.65947 3.763695,1.78536 5.283684,2.50217 1.51999,0.71682 3.249301,1.53544 3.843,1.81889 6.764629,3.22919 8.409895,3.89157 8.710013,3.50619 0.307282,-0.39457 7.664617,-10.53456 10.779624,-14.85662 1.454388,-2.01794 4.270384,-6.06115 6.25798,-8.98484 4.02706,-5.92365 4.34925,-6.56035 8.90131,-17.61019 1.47015,-3.56868 2.98004,-7.20038 3.35532,-8.07037 0.37529,-0.87 1.37902,-3.29215 2.23025,-5.38265 0.85123,-2.09052 1.82813,-4.39573 2.17131,-5.12255 1.03901,-2.20037 6.99942,-16.55833 7.89485,-19.01809 0.46044,-1.26485 0.93079,-2.26568 1.04538,-2.22397 0.3718,0.13532 -5.57084,16.9756 -19.35227,54.84097 -13.278971,36.48485 -13.507295,37.13702 -13.368513,38.26025 0.291565,2.36468 2.031883,3.99209 5.676144,5.30998 0.0066,0.002 0.0067,0.002 0.0138,0.004 0.0066,0.002 0.0073,0.003 0.01345,0.005 3.638799,1.33293 6.018029,1.20491 7.761369,-0.41912 0.82831,-0.77125 1.07261,-1.4176 14.35234,-37.90218 13.78221,-37.86508 20.05461,-54.58534 20.42641,-54.45001 0.11458,0.0417 -0.16842,1.11072 -0.62873,2.37562 -0.89517,2.45985 -5.55836,17.28996 -6.1768,19.64341 -0.2043,0.77737 -0.93771,3.1712 -1.62938,5.31979 -0.69167,2.14858 -1.47971,4.64924 -1.75145,5.55693 -0.27173,0.90768 -1.44949,4.66026 -2.6172,8.33901 -3.61561,11.39068 -3.77807,12.08552 -4.50081,19.21185 -0.35673,3.51727 -0.79847,8.42464 -0.98146,10.90534 -0.39193,5.31317 -1.27374,17.81006 -1.29198,18.30983 -0.0178,0.48814 1.6683,1.03828 8.926,2.9128 0.637,0.16448 2.48792,0.64896 4.11306,1.07688 1.62515,0.42792 4.17028,1.09379 5.65591,1.47951 1.48563,0.38573 4.20134,1.1051 6.03486,1.59873 3.06744,0.82583 3.39927,0.86386 4.15359,0.47296 0.0946,-0.049 0.15399,-0.0992 0.23055,-0.1454 l 2.42757,-6.66971 c 0.35723,-1.91265 0.34909,-3.47134 -0.0644,-5.01901 -0.2148,-0.80391 -1.58207,-5.35608 -3.03826,-10.11587 -8.6159,-28.16267 -11.17484,-38.91631 -10.6219,-44.64 0.15414,-1.59553 1.18903,-7.47427 4.61073,-26.19664 3.76316,-20.59063 5.18339,-30.065513 5.72716,-38.207146 0.32374,-4.846836 0.20648,-10.164436 -0.25546,-11.609048 -0.11618,-0.363293 -0.24225,-0.575382 -0.36149,-0.618781 -0.11924,-0.0434 -0.35228,0.03798 -0.67479,0.241608 z M 101.82641,173.29 c -0.10261,-0.0372 -1.01496,1.11951 -2.027207,2.57053 -1.012239,1.45101 -4.03807,5.70309 -6.724295,9.44862 -7.844297,10.93767 -9.050601,12.76237 -10.469803,15.84267 -1.878087,4.07627 -3.986272,9.95529 -3.750989,10.45987 0.104375,0.22382 0.27822,0.43949 0.386125,0.47876 0.107913,0.0393 2.790997,-1.83311 5.962693,-4.16055 l 5.766993,-4.23177 5.521474,-15.17013 c 3.036845,-8.34366 5.437609,-15.20082 5.335009,-15.238 z m 19.29578,7.02309 c -0.1025,-0.0375 -2.6711,6.75861 -5.70794,15.10227 l -5.52147,15.17012 1.69764,6.94868 c 0.93361,3.82165 1.78542,6.98063 1.89333,7.01991 0.10791,0.0393 0.37971,-0.0142 0.60354,-0.11855 0.50457,-0.2353 2.66856,-6.09401 3.85004,-10.42382 0.8928,-3.27189 1.14161,-5.44509 2.16313,-18.86605 0.34981,-4.59591 0.76508,-9.79817 0.92235,-11.56036 0.15727,-1.7622 0.20187,-3.23472 0.0994,-3.2722 z" /></g></svg>
